<svg width="72" height="72" viewBox="0 0 72 72" fill="none" xmlns="http://www.w3.org/2000/svg">
<g clip-path="url(#clip0_494_7664)">
<path d="M72 36C72 42.8035 70.1124 49.1656 66.8305 54.593C64.0352 59.226 60.2214 63.1731 55.7015 66.1358C55.4276 66.3146 55.1492 66.4911 54.8708 66.6631C54.2778 67.0298 53.6712 67.3783 53.0533 67.7111C52.9628 67.7608 52.8723 67.8084 52.7817 67.8559C51.4147 68.5802 49.9955 69.2161 48.5289 69.7593H48.5266C45.2855 70.9634 41.8225 71.7148 38.2147 71.9321C37.6036 71.9706 36.9857 71.9909 36.3633 71.9977C36.3203 71.9977 36.275 71.9977 36.232 71.9977C36.155 71.9977 36.0781 71.9977 36.0011 71.9977H35.9672C35.8336 71.9977 35.7024 71.9977 35.5711 71.9977C34.9713 71.9909 34.3783 71.9683 33.7876 71.9321C30.1662 71.7126 26.6896 70.9589 23.4349 69.7458C22.172 69.275 20.9429 68.7363 19.7547 68.132C19.4808 67.9962 19.2115 67.8559 18.9444 67.7111C18.331 67.3806 17.7267 67.0321 17.136 66.6677C16.8395 66.4843 16.5475 66.2988 16.2555 66.1086C11.7559 63.1505 7.95574 59.2101 5.16727 54.593C1.88765 49.1656 0 42.8035 0 36C0 16.1192 16.1174 0 36.0011 0C55.8848 0 72 16.1192 72 36Z" fill="#BF9D7D"/>
<path d="M41.5259 59.8214V52.0356H30.4059V59.8214C30.4059 59.8214 20.7572 61.082 16.2554 66.1088C16.5473 66.2989 16.8393 66.4845 17.1358 66.6679C17.7266 67.0322 18.3309 67.3808 18.9443 67.7112C20.3838 68.4876 21.8844 69.1688 23.4348 69.7459C26.6895 70.9591 30.166 71.7127 33.7874 71.9323C34.3782 71.9685 34.9712 71.9911 35.571 71.9979C35.7022 71.9979 35.8335 71.9979 35.967 71.9979H36.001C36.121 71.9979 36.2432 71.9979 36.3631 71.9979C36.9856 71.9911 37.6035 71.9708 38.2146 71.9323C41.8224 71.715 45.2853 70.9636 48.5265 69.7595H48.5287C50.0927 69.1801 51.6024 68.4943 53.0532 67.7112C53.6711 67.3785 54.2777 67.03 54.8707 66.6633C55.1491 66.4913 55.4275 66.3148 55.7014 66.136C51.2108 61.0866 41.5259 59.8214 41.5259 59.8214Z" fill="#FDDCAB"/>
<path d="M15.6239 35.0405C16.0245 39.6328 18.9284 39.9089 18.9284 39.9089L18.9714 30.7154C18.9714 30.7154 15.2187 30.446 15.6239 35.0405Z" fill="#FDDCAB"/>
<path d="M36.0033 12.3442C26.522 12.3442 18.8379 20.0304 18.8379 29.5091V39.5061C18.8379 48.987 26.5243 56.6709 36.0033 56.6709L36.0033 12.3442Z" fill="#FDDCAB"/>
<path d="M56.3011 34.9023C55.9005 39.4946 52.9966 39.7707 52.9966 39.7707L52.9536 30.5772C52.9536 30.5772 56.7063 30.3079 56.3011 34.9023Z" fill="#FFEAD5"/>
<path d="M36.0034 12.3442L36.0034 56.6732C45.4847 56.6732 53.1688 48.987 53.1688 39.5083V29.5113C53.1688 20.0304 45.4824 12.3465 36.0034 12.3465V12.3442Z" fill="#FFEAD5"/>
<path d="M55.7014 66.1359L52.7817 67.856C51.4146 68.5802 49.9955 69.2162 48.5288 69.7594H48.5265C45.2854 70.9635 41.8225 71.7149 38.2146 71.9322C37.6035 71.9707 36.9856 71.991 36.3632 71.9978C36.3202 71.9978 36.2749 71.9978 36.2319 71.9978V66.8466H36.2387C36.3157 66.8466 36.3858 66.8398 36.4651 66.8398C43.0107 66.704 44.199 60.1562 44.199 60.1562C44.3733 60.1676 44.543 60.1834 44.7105 60.2083C51.3467 61.2313 55.7014 66.1359 55.7014 66.1359Z" fill="#FF3932"/>
<path d="M36.2319 66.8466V71.9978C36.1549 71.9978 36.0779 71.9978 36.001 71.9978H35.967C35.8335 71.9978 35.7022 71.9978 35.571 71.9978C34.9712 71.991 34.3782 71.9684 33.7874 71.9322C30.166 71.7126 26.6895 70.959 23.4348 69.7458C22.1718 69.2751 20.9428 68.7364 19.7545 68.1321L16.2554 66.1087C16.2554 66.1087 20.4788 61.1725 27.7555 60.2083C27.9253 60.1857 28.0905 60.1676 28.2671 60.1562C28.2671 60.1562 29.4553 66.704 35.9987 66.8398C36.078 66.8398 36.1504 66.8466 36.2273 66.8466H36.2319Z" fill="#DB242D"/>
<path d="M33.4687 36.9054V32.7229C33.4687 32.6052 33.3759 32.5124 33.2718 32.5124H25.0105V36.8805C25.0105 38.0167 25.9317 38.9379 27.0679 38.9379H31.4362C32.5588 38.9379 33.4687 38.028 33.4687 36.9054ZM34.7882 31.1929V36.9054C34.7882 38.7568 33.2876 40.2574 31.4362 40.2574H27.0814C25.2164 40.2574 23.6909 38.7319 23.6909 36.867V31.4713C23.6909 31.3174 23.8154 31.1951 23.967 31.1951H34.7882V31.1929Z" fill="#1F1F24"/>
<path d="M38.4773 37.1838V32.7229C38.4773 32.6052 38.5701 32.5124 38.6742 32.5124H46.9355V37.1567C46.9355 38.1412 46.1388 38.9379 45.1542 38.9379H40.2314C39.2626 38.9379 38.4773 38.1525 38.4773 37.1838ZM37.1577 31.1929V37.1838C37.1577 38.8813 38.5338 40.2574 40.2314 40.2574H45.1406C46.854 40.2574 48.255 38.8564 48.255 37.1431V31.1929H37.1577Z" fill="#1F1F24"/>
<path d="M24.3469 32.5124H20.3476L19.9492 31.1929H24.3469V32.5124Z" fill="#1F1F24"/>
<path d="M47.5986 32.5124H51.6003L51.9964 31.1929H47.5986V32.5124Z" fill="#1F1F24"/>
<path d="M37.4721 31.1929H34.4731V32.5124H37.4721V31.1929Z" fill="#1F1F24"/>
<path d="M20.3387 32.5212L20.3387 27.5872C20.3387 26.6434 20.5401 25.7494 20.8909 24.9346C31.4722 16.3635 39.1472 32.4103 51.5369 26.4556C51.6003 26.8245 51.6501 27.1979 51.6501 27.5849L51.5731 32.365C52.6392 31.3058 53.3951 30.6336 54.3367 30.7898L54.8844 27.164C55.0248 23.3797 53.5943 19.7132 51.0005 16.9633C47.2478 12.9844 43.4952 11.6943 35.9921 11.6943C28.489 11.6943 24.7341 12.9844 20.9837 16.9633C18.3899 19.7155 16.9594 23.3797 17.0998 27.164L17.6475 30.9233C18.5913 30.7694 19.5623 31.4099 20.3341 32.5212H20.3387Z" fill="#1F1F24"/>
</g>
<defs>
<clipPath id="clip0_494_7664">
<rect width="72" height="72" fill="white"/>
</clipPath>
</defs>
</svg>
